<svg width="93" height="93" viewBox="0 0 93 93" fill="none" xmlns="http://www.w3.org/2000/svg">
  <rect x="4" width="84.1875" height="84.1875" rx="20" fill="#1B1B1E"/>
  <circle cx="46" cy="42" r="28" fill="url(#s-grad)" opacity="0.15"/>
  <path d="M36 32C31 37 28 43 28 50C28 57 31 62 36 65C41 68 46 68 51 65L48 60C45 62 42 62 39 60C36 58 34 54 34 50C34 46 36 42 39 39L46 30L53 39C56 42 58 46 58 50C58 52.5 57.5 55 56 57L59 62C61.5 58 63 54 63 50C63 43 60 37 55 32L46 20L36 32Z" fill="url(#s-grad)"/>
  <path d="M42 45L46 38L50 45H42Z" fill="white" opacity="0.4"/>
  <defs>
    <linearGradient id="s-grad" x1="28" y1="20" x2="63" y2="68" gradientUnits="userSpaceOnUse">
      <stop stop-color="#FF6B35"/>
      <stop offset="1" stop-color="#FF9F6A"/>
    </linearGradient>
  </defs>
</svg>
