<svg width="48" height="48" viewBox="0 0 48 48" fill="none" xmlns="http://www.w3.org/2000/svg">
  <path d="M24 4C16 4 8 8 5 16C2 24 2 32 5 38C8 44 16 48 24 48C32 48 40 44 43 38C46 32 46 24 43 16C40 8 32 4 24 4Z" fill="#FF6B35" opacity="0.2"/>
  <path d="M24 8C18 8 12 11 9.5 17C7 23 7 29 9.5 35C12 41 18 44 24 44C30 44 36 41 38.5 35C41 29 41 23 38.5 17C36 11 30 8 24 8Z" fill="#FF6B35"/>
  <circle cx="24" cy="24" r="14" fill="#FF8C5A" opacity="0.2"/>
  <path d="M24 12C20 12 16.5 14 14.5 18C13 20.5 13 23.5 14.5 26L19.5 19.5C20.5 18 22 17 24 17C26 17 27.5 18 28.5 19.5L33.5 26C35 23.5 35 20.5 33.5 18C31.5 14 28 12 24 12Z" fill="white"/>
</svg>
