<svg width="48" height="48" viewBox="0 0 48 48" fill="none" xmlns="http://www.w3.org/2000/svg">
  <path d="M24 2C16 2 8 6.5 5 14.5C2 22.5 2 31 5 38.5C8 46 16 50 24 50C32 50 40 46 43 38.5C46 31 46 22.5 43 14.5C40 6.5 32 2 24 2Z" fill="url(#s-grad)" opacity="0.2"/>
  <path d="M24 6C18 6 12 9.5 9.5 16C7 22.5 7 29.5 9.5 36C12 42.5 18 46 24 46C30 46 36 42.5 38.5 36C41 29.5 41 22.5 38.5 16C36 9.5 30 6 24 6Z" fill="currentColor"/>
  <circle cx="24" cy="24" r="14" fill="url(#s-grad)" opacity="0.15"/>
  <path d="M24 12C20 12 16.5 14 14.5 18C13 20.5 13 23.5 14.5 26L19.5 19.5C20.5 18 22 17 24 17C26 17 27.5 18 28.5 19.5L33.5 26C35 23.5 35 20.5 33.5 18C31.5 14 28 12 24 12Z" fill="white" opacity="0.6"/>
  <defs>
    <linearGradient id="s-grad" x1="5" y1="2" x2="43" y2="50" gradientUnits="userSpaceOnUse">
      <stop stop-color="#FF6B35"/>
      <stop offset="1" stop-color="#FF8C5A"/>
    </linearGradient>
  </defs>
</svg>
