<svg width="180" height="48" viewBox="0 0 180 48" fill="none" xmlns="http://www.w3.org/2000/svg">
  <path d="M24 4C17.5 4 11 7.5 8 14C5 20.5 5 28 8 34C11 40 17.5 44 24 44C30.5 44 37 40 40 34C43 28 43 20.5 40 14C37 7.5 30.5 4 24 4Z" fill="url(#s-grad)" opacity="0.2"/>
  <path d="M24 8C19 8 14.5 10.5 12.5 15C10.5 19.5 10.5 25 12.5 29.5C14.5 34 19 36.5 24 36.5C29 36.5 33.5 34 35.5 29.5C37.5 25 37.5 19.5 35.5 15C33.5 10.5 29 8 24 8Z" fill="white"/>
  <path d="M24 12C20.5 12 17.5 13.5 16 17C15 19 15 21.5 16 23.5L20 18C21 16.5 22.5 16 24 16C25.5 16 27 16.5 28 18L32 23.5C33 21.5 33 19 32 17C30.5 13.5 27.5 12 24 12Z" fill="#1a1a2e" opacity="0.5"/>
  <text x="52" y="32" font-family="system-ui, -apple-system, sans-serif" font-size="28" font-weight="700" fill="white" letter-spacing="-0.5">SkwirlsAI</text>
  <defs>
    <linearGradient id="s-grad" x1="8" y1="4" x2="40" y2="44" gradientUnits="userSpaceOnUse">
      <stop stop-color="#FF6B35"/>
      <stop offset="1" stop-color="#FF8C5A"/>
    </linearGradient>
  </defs>
</svg>
